<svg xmlns="http://www.w3.org/2000/svg" width="24" height="24" viewBox="0 0 24 24" fill="none" stroke="#D23272" stroke-width="2" stroke-linecap="round" stroke-linejoin="round">
  <path d="M8 2h8"></path>
  <path d="M9 2v2.789a4 4 0 0 1-.672 2.219l-.656.984A4 4 0 0 0 7 10.212V20a2 2 0 0 0 2 2h6a2 2 0 0 0 2-2v-9.789a4 4 0 0 0-.672-2.219l-.656-.984A4 4 0 0 1 15 4.788V2"></path>
  <path d="M7 15a6.472 6.472 0 0 1-3-5.5 6.472 6.472 0 0 1 3-5.5"></path>
  <path d="M17 15a6.472 6.472 0 0 0 3-5.5 6.472 6.472 0 0 0-3-5.5"></path>
</svg>